<svg width="48" height="48" viewBox="0 0 48 48" fill="none" xmlns="http://www.w3.org/2000/svg">
<path fill-rule="evenodd" clip-rule="evenodd" d="M23.8546 4.75C15.4118 4.75 8.48969 11.5828 8.48969 19.9091V20.051C8.54023 20.1519 8.56867 20.2658 8.56867 20.3864V31.7614C8.56867 32.1756 8.23289 32.5114 7.81867 32.5114H6.47576C4.05994 32.5114 2.25 30.5574 2.25 28.1818V23.8864C2.25 21.568 4.16077 19.6364 6.47576 19.6364H6.99193C7.14101 10.5874 14.6944 3.25 23.8546 3.25H24.8025C33.9895 3.25 41.5603 10.6305 41.6663 19.7159H42.4973C44.7333 19.7159 46.4861 21.4885 46.4861 23.7273V28.5C46.4861 30.7389 44.7333 32.5114 42.4973 32.5114H41.5954C41.481 33.1008 41.2379 33.6376 40.9227 34.1455L40.9195 34.1507C40.2905 35.146 39.2785 36.0211 38.0169 36.7464C35.6462 41.9322 30.4303 45.5568 24.4076 45.5568C16.168 45.5568 9.43854 38.7729 9.43854 30.4886V20.6249C9.43854 20.5598 9.43895 20.4948 9.43978 20.4299C9.43896 20.4155 9.43854 20.401 9.43854 20.3863C9.43854 20.3632 9.43958 20.3404 9.44162 20.3178C9.60547 12.1736 16.27 5.55676 24.4076 5.55676C32.6132 5.55676 39.3211 12.2848 39.3763 20.5225L39.3765 20.5361L39.3766 20.5454L39.3765 20.56L39.3766 20.6249V30.4886C39.3766 31.7863 39.2115 33.0472 38.9013 34.251C39.2064 33.9576 39.4571 33.6564 39.6498 33.3519C39.9947 32.7956 40.1674 32.2963 40.1674 31.7614L40.1674 31.7589V20.4659C40.1674 20.4526 40.1678 20.4393 40.1685 20.4261C40.1678 20.413 40.1674 20.3997 40.1674 20.3864V19.9091C40.1674 11.5828 33.2453 4.75 24.8025 4.75H23.8546ZM35.3584 36.3401C35.8955 36.136 36.3926 35.9138 36.8467 35.6773C37.5098 34.0771 37.8766 32.324 37.8766 30.4886V21.2954H25.9875C24.6944 21.2954 23.4719 20.8267 22.5325 19.8807L20.2412 17.5735C19.6753 19.6382 17.8118 21.1363 15.5602 21.1363H10.9385V30.4886C10.9385 37.9543 17.0062 44.0568 24.4076 44.0568C29.1449 44.0568 33.3359 41.5567 35.7391 37.7992C33.7365 38.5388 31.3476 39.0075 28.7891 39.0977C28.7387 40.2571 27.7956 41.1818 26.6194 41.1818H21.8007C20.5916 41.1818 19.6288 40.2047 19.6288 39V37.7272C19.6288 36.5225 20.5916 35.5454 21.8007 35.5454H26.6194C27.7845 35.5454 28.7209 36.4527 28.7875 37.5968C31.2417 37.5051 33.5049 37.0442 35.3584 36.3401ZM10.9742 19.6363H15.5602C17.4319 19.6363 18.9179 18.1475 18.9179 16.25V15.9318C18.9179 15.628 19.1012 15.3542 19.3821 15.2384C19.663 15.1226 19.986 15.1877 20.2001 15.4033L23.5968 18.8238C24.2373 19.4687 25.0687 19.7954 25.9875 19.7954H37.8515C37.4221 12.7125 31.5328 7.05676 24.4076 7.05676C17.3357 7.05676 11.4815 12.628 10.9742 19.6363ZM6.47576 21.1364C4.99901 21.1364 3.75 22.3866 3.75 23.8864V28.1818C3.75 29.7835 4.94186 31.0114 6.47576 31.0114H7.06867V21.1364H6.47576ZM41.6674 31.0114V21.2159H42.4973C43.8951 21.2159 44.9861 22.3071 44.9861 23.7273V28.5C44.9861 29.9203 43.8951 31.0114 42.4973 31.0114H41.6674ZM21.1288 37.7272C21.1288 37.3411 21.4299 37.0454 21.8007 37.0454H26.6194C26.9902 37.0454 27.2913 37.3411 27.2913 37.7272V39C27.2913 39.3861 26.9902 39.6818 26.6194 39.6818H21.8007C21.4299 39.6818 21.1288 39.3861 21.1288 39V37.7272Z" fill="#307FE2"/>
</svg>
